HIERARCHY
ROOT Hips
{
    OFFSET   0.000000   0.000000   0.000000
    CHANNELS 6 Xposition Yposition Zposition Zrotation Xrotation Yrotation
    JOINT Chest
    {
        OFFSET   0.000000   8.007240   0.000000
        CHANNELS 3 Zrotation Xrotation Yrotation
        JOINT Chest2
        {
            OFFSET   0.000000  22.077100   0.000000
            CHANNELS 3 Zrotation Xrotation Yrotation
            JOINT Neck
            {
                OFFSET   0.000000  23.254800   0.000000
                CHANNELS 3 Zrotation Xrotation Yrotation
                JOINT Head
                {
                    OFFSET   0.000000  14.370000   1.956600
                    CHANNELS 3 Zrotation Xrotation Yrotation
                    End Site
                    {
                        OFFSET   0.000000  19.566000   0.000000
                    }
                }
            }
            JOINT LeftCollar
            {
                OFFSET   3.911900  19.017000  -0.467064
                CHANNELS 3 Zrotation Xrotation Yrotation
                JOINT LeftShoulder
                {
                    OFFSET  10.383700   0.000000   0.000000
                    CHANNELS 3 Zrotation Xrotation Yrotation
                    JOINT LeftElbow
                    {
                        OFFSET  26.662100   0.001476   0.000517
                        CHANNELS 3 Zrotation Xrotation Yrotation
                        JOINT LeftWrist
                        {
                            OFFSET  28.869000  -0.000025  -0.000106
                            CHANNELS 3 Zrotation Xrotation Yrotation
                            JOINT LeftFinger0
                            {
                                OFFSET   2.044660  -2.323460   3.252850
                                CHANNELS 3 Zrotation Xrotation Yrotation
                                JOINT LeftFinger01
                                {
                                    OFFSET   3.088130   0.000000   0.000000
                                    CHANNELS 3 Zrotation Xrotation Yrotation
                                    JOINT LeftFinger02
                                    {
                                        OFFSET   2.639460   0.000000   0.000000
                                        CHANNELS 3 Zrotation Xrotation Yrotation
                                        End Site
                                        {
                                            OFFSET   2.582190   0.000000   0.000000
                                        }
                                    }
                                }
                            }
                            JOINT LeftFinger1
                            {
                                OFFSET   8.364480   0.000000   3.252850
                                CHANNELS 3 Zrotation Xrotation Yrotation
                                JOINT LeftFinger11
                                {
                                    OFFSET   4.646930   0.000000   0.000000
                                    CHANNELS 3 Zrotation Xrotation Yrotation
                                    JOINT LeftFinger12
                                    {
                                        OFFSET   2.323460   0.000000   0.000000
                                        CHANNELS 3 Zrotation Xrotation Yrotation
                                        End Site
                                        {
                                            OFFSET   2.273050   0.000000   0.000000
                                        }
                                    }
                                }
                            }
                            JOINT LeftFinger2
                            {
                                OFFSET   8.364490   0.000015   1.078090
                                CHANNELS 3 Zrotation Xrotation Yrotation
                                JOINT LeftFinger21
                                {
                                    OFFSET   5.111620   0.000000   0.000000
                                    CHANNELS 3 Zrotation Xrotation Yrotation
                                    JOINT LeftFinger22
                                    {
                                        OFFSET   2.788160   0.000016   0.000000
                                        CHANNELS 3 Zrotation Xrotation Yrotation
                                        End Site
                                        {
                                            OFFSET   2.727660   0.000000   0.000000
                                        }
                                    }
                                }
                            }
                            JOINT LeftFinger3
                            {
                                OFFSET   7.899780   0.000017  -1.078090
                                CHANNELS 3 Zrotation Xrotation Yrotation
                                JOINT LeftFinger31
                                {
                                    OFFSET   4.646930   0.000000   0.000000
                                    CHANNELS 3 Zrotation Xrotation Yrotation
                                    JOINT LeftFinger32
                                    {
                                        OFFSET   2.323470   0.000000   0.000000
                                        CHANNELS 3 Zrotation Xrotation Yrotation
                                        End Site
                                        {
                                            OFFSET   2.273050   0.000000   0.000000
                                        }
                                    }
                                }
                            }
                            JOINT LeftFinger4
                            {
                                OFFSET   7.435090   0.000000  -3.252850
                                CHANNELS 3 Zrotation Xrotation Yrotation
                                JOINT LeftFinger41
                                {
                                    OFFSET   3.717550   0.000000   0.000000
                                    CHANNELS 3 Zrotation Xrotation Yrotation
                                    JOINT LeftFinger42
                                    {
                                        OFFSET   1.858770   0.000000   0.000000
                                        CHANNELS 3 Zrotation Xrotation Yrotation
                                        End Site
                                        {
                                            OFFSET   1.818440   0.000000   0.000000
                                        }
                                    }
                                }
                            }
                        }
                    }
                }
            }
            JOINT RightCollar
            {
                OFFSET  -3.911900  19.017000  -0.467063
                CHANNELS 3 Zrotation Xrotation Yrotation
                JOINT RightShoulder
                {
                    OFFSET -10.383700   0.000019   0.000000
                    CHANNELS 3 Zrotation Xrotation Yrotation
                    JOINT RightElbow
                    {
                        OFFSET -26.662100   0.001175   0.000102
                        CHANNELS 3 Zrotation Xrotation Yrotation
                        JOINT RightWrist
                        {
                            OFFSET -28.869000   0.000016  -0.000079
                            CHANNELS 3 Zrotation Xrotation Yrotation
                            JOINT RightFinger0
                            {
                                OFFSET  -2.044660  -2.323490   3.252850
                                CHANNELS 3 Zrotation Xrotation Yrotation
                                JOINT RightFinger01
                                {
                                    OFFSET  -3.088140   0.000000   0.000000
                                    CHANNELS 3 Zrotation Xrotation Yrotation
                                    JOINT RightFinger02
                                    {
                                        OFFSET  -2.639460   0.000000   0.000000
                                        CHANNELS 3 Zrotation Xrotation Yrotation
                                        End Site
                                        {
                                            OFFSET  -2.582190   0.000000   0.000000
                                        }
                                    }
                                }
                            }
                            JOINT RightFinger1
                            {
                                OFFSET  -8.364480   0.000000   3.252850
                                CHANNELS 3 Zrotation Xrotation Yrotation
                                JOINT RightFinger11
                                {
                                    OFFSET  -4.646930   0.000000   0.000000
                                    CHANNELS 3 Zrotation Xrotation Yrotation
                                    JOINT RightFinger12
                                    {
                                        OFFSET  -2.323470   0.000000   0.000000
                                        CHANNELS 3 Zrotation Xrotation Yrotation
                                        End Site
                                        {
                                            OFFSET  -2.273050   0.000000   0.000000
                                        }
                                    }
                                }
                            }
                            JOINT RightFinger2
                            {
                                OFFSET  -8.364480   0.000000   1.078090
                                CHANNELS 3 Zrotation Xrotation Yrotation
                                JOINT RightFinger21
                                {
                                    OFFSET  -5.111620   0.000000   0.000000
                                    CHANNELS 3 Zrotation Xrotation Yrotation
                                    JOINT RightFinger22
                                    {
                                        OFFSET  -2.788160   0.000000   0.000000
                                        CHANNELS 3 Zrotation Xrotation Yrotation
                                        End Site
                                        {
                                            OFFSET  -2.727660   0.000000   0.000000
                                        }
                                    }
                                }
                            }
                            JOINT RightFinger3
                            {
                                OFFSET  -7.899780   0.000000  -1.078090
                                CHANNELS 3 Zrotation Xrotation Yrotation
                                JOINT RightFinger31
                                {
                                    OFFSET  -4.646930   0.000000   0.000000
                                    CHANNELS 3 Zrotation Xrotation Yrotation
                                    JOINT RightFinger32
                                    {
                                        OFFSET  -2.323470   0.000000   0.000000
                                        CHANNELS 3 Zrotation Xrotation Yrotation
                                        End Site
                                        {
                                            OFFSET  -2.273050   0.000000   0.000000
                                        }
                                    }
                                }
                            }
                            JOINT RightFinger4
                            {
                                OFFSET  -7.435090   0.000000  -3.252850
                                CHANNELS 3 Zrotation Xrotation Yrotation
                                JOINT RightFinger41
                                {
                                    OFFSET  -3.717550   0.000000   0.000000
                                    CHANNELS 3 Zrotation Xrotation Yrotation
                                    JOINT RightFinger42
                                    {
                                        OFFSET  -1.858770   0.000000   0.000000
                                        CHANNELS 3 Zrotation Xrotation Yrotation
                                        End Site
                                        {
                                            OFFSET  -1.818440   0.000000   0.000000
                                        }
                                    }
                                }
                            }
                        }
                    }
                }
            }
        }
    }
    JOINT LeftHip
    {
        OFFSET   9.783040   0.000000   0.000000
        CHANNELS 3 Zrotation Xrotation Yrotation
        JOINT LeftKnee
        {
            OFFSET   0.000032 -41.789100  -0.002222
            CHANNELS 3 Zrotation Xrotation Yrotation
            JOINT LeftAnkle
            {
                OFFSET   0.000087 -41.133200  -0.000135
                CHANNELS 3 Zrotation Xrotation Yrotation
                JOINT LeftToe
                {
                    OFFSET   0.000000  -6.358960  14.674500
                    CHANNELS 3 Zrotation Xrotation Yrotation
                    End Site
                    {
                        OFFSET   0.000000   0.000000   3.913200
                    }
                }
            }
        }
    }
    JOINT RightHip
    {
        OFFSET  -9.783040   0.000000   0.000000
        CHANNELS 3 Zrotation Xrotation Yrotation
        JOINT RightKnee
        {
            OFFSET   0.000047 -41.789100  -0.000896
            CHANNELS 3 Zrotation Xrotation Yrotation
            JOINT RightAnkle
            {
                OFFSET  -0.000117 -41.133300  -0.000248
                CHANNELS 3 Zrotation Xrotation Yrotation
                JOINT RightToe
                {
                    OFFSET   0.000000  -6.358970  14.674500
                    CHANNELS 3 Zrotation Xrotation Yrotation
                    End Site
                    {
                        OFFSET   0.000000   0.000000   3.913200
                    }
                }
            }
        }
    }
}
MOTION
Frames: 4
Frame Time:   0.016667
  0.699473  89.365100   1.875250   1.540780  -9.794990  11.096300  -0.012703   9.539680   2.737660  -0.505742  19.067500   5.596200  -2.746780  -3.915880  -0.187897  -4.571030  -7.885900  -1.809710 -10.184000  -6.383420   7.541660 -73.552700  14.295800  -1.945540   0.326116   1.700950 -16.765100   7.837420  -5.102690  -0.633319  37.890000  30.286400 -50.071600 -33.408500  -0.002198   0.000822 -11.704300  -0.005104   0.000956 -30.220300   0.546723  -0.938437 -24.730000  -0.002748  -0.006817 -17.309200   0.000388  -0.007357 -28.471000  -3.921740   7.187970 -39.448400   0.001193  -0.004962 -26.272700   0.002569  -0.001806 -26.927100  -3.726380   7.291020 -27.678300   0.003139   0.001933 -18.433700   0.004141  -0.004040 -25.921600  -4.622050   9.411660 -39.451800   0.004143  -0.001318 -26.274900  -0.001422   0.003972   6.032360  -3.489210  15.001900  63.159500  -8.195200  57.321900  -8.774590 -17.744700  75.695100  45.170900 -46.778200  43.824900 -47.296600  55.030300  92.829800  49.031100   0.003560  -0.003904  24.004900   0.004812  -0.006364   7.075740   3.682160  27.356500   6.522640   0.008450  -0.002828   4.565850   0.001020  -0.006324   4.285020   0.814591  10.754800   4.361870   0.007528   0.003099   2.903890   0.005972  -0.005895   3.071750  -0.388852  -7.287100   3.096230  -0.003787   0.004550   2.062080  -0.002246   0.001292  67.563100  -9.254620  -3.800030 101.806000  -0.001214  -0.001428  67.802800  -0.001433  -0.008917   1.733410  11.514700  -0.710626  -0.083088   1.822820   7.723650  -2.616170  -3.201970  -1.733960   0.000000   0.000000  -0.000000  -1.053260  13.990200  -7.014860   1.215760   1.529240 -15.119300  -0.139711  -4.604900  -2.687120  -0.000000   0.000000  -0.000000
  0.734011  89.366300   1.900900   1.537550  -9.792230  11.088800   0.009688   9.518340   2.734330  -0.458332  19.026000   5.585290  -2.740200  -3.885950  -0.185838  -4.559770  -7.825930  -1.832040 -10.178400  -6.367860   7.556840 -73.547200  14.230800  -1.932400   0.329074   1.825620 -16.974800   7.812030  -5.138400  -0.682483  37.962700  30.355300 -50.168900 -33.349800  -0.002146   0.000805 -11.674900  -0.005134   0.001088 -30.218200   0.604428  -1.037580 -24.728600  -0.002814  -0.006750 -17.306000   0.000372  -0.007351 -28.474100  -3.919650   7.183910 -39.491100   0.001166  -0.004934 -26.301100   0.002544  -0.001779 -26.931700  -3.725010   7.286730 -27.697000   0.003105   0.001935 -18.446200   0.004109  -0.003970 -25.954900  -4.579710   9.315430 -39.492400   0.004142  -0.001296 -26.301900  -0.001441   0.004069   6.030790  -3.460550  14.991300  63.174800  -8.144360  57.270600  -8.858560 -17.713600  75.694100  45.258700 -46.643600  43.862100 -47.226000  55.028600  92.741900  49.090800   0.003567  -0.003957  24.079900   0.004834  -0.006402   7.056930   3.673320  27.363900   6.505690   0.008515  -0.002940   4.554000   0.001082  -0.006449   4.286120   0.812653  10.738000   4.362360   0.007587   0.003238   2.903640   0.006139  -0.006130   3.089790  -0.396889  -7.310880   3.115150  -0.003759   0.004610   2.074660  -0.002238   0.001302  67.608600  -9.259730  -3.792610 101.874000  -0.001197  -0.001397  67.847900  -0.001404  -0.009318   1.710100  11.534300  -0.706683  -0.080453   1.819650   7.716320  -2.598080  -3.219720  -1.717670  -0.000000   0.000000   0.000000  -1.065860  14.009300  -6.998130   1.206180   1.535660 -15.132900  -0.119234  -4.624500  -2.687720   0.000000   0.000000   0.000000
  0.766824  89.369200   1.927130   1.527610  -9.790900  11.073700   0.035301   9.495810   2.727770  -0.403646  18.982300   5.566850  -2.738510  -3.855210  -0.184102  -4.556320  -7.764080  -1.831760 -10.170400  -6.347490   7.574610 -73.548300  14.192700  -1.933620   0.331129   1.940350 -17.162400   7.796220  -5.173490  -0.750771  38.010700  30.412300 -50.163000 -33.329000  -0.002096   0.000786 -11.664500  -0.005163   0.001225 -30.210800   0.596038  -1.023450 -24.721600  -0.002882  -0.006682 -17.302900   0.000358  -0.007344 -28.475700  -3.918200   7.181270 -39.517300   0.001139  -0.004903 -26.318500   0.002517  -0.001755 -26.934900  -3.723680   7.283770 -27.709600   0.003071   0.001938 -18.454500   0.004079  -0.003901 -25.970200  -4.591180   9.334090 -39.519300   0.004142  -0.001277 -26.319900  -0.001456   0.004159   6.025870  -3.429320  14.981500  63.183200  -8.103740  57.248800  -8.907520 -17.655600  75.653100  45.413200 -46.495000  43.901700 -47.297700  55.079100  92.828500  49.064400   0.003572  -0.003980  24.061000   0.004857  -0.006439   7.022190   3.657160  27.377600   6.474410   0.008576  -0.003047   4.532100   0.001161  -0.006569   4.287230   0.816913  10.766800   4.363910   0.007631   0.003359   2.905330   0.006319  -0.006378   3.102380  -0.399813  -7.324450   3.128020  -0.003743   0.004666   2.083240  -0.002222   0.001319  67.605000  -9.259500  -3.793180 101.868000  -0.001173  -0.001378  67.844300  -0.001374  -0.009697   1.698750  11.551200  -0.700418  -0.086935   1.817520   7.715490  -2.579460  -3.239400  -1.703510  -0.000000   0.000000  -0.000000  -1.068900  14.021300  -6.980860   1.193190   1.546500 -15.139500  -0.099368  -4.641270  -2.687830   0.000000   0.000000   0.000000
  0.797482  89.372900   1.952920   1.512540  -9.790120  11.055100   0.062530   9.472740   2.717880  -0.345074  18.937500   5.541360  -2.736920  -3.825870  -0.182455  -4.552950  -7.704900  -1.831460 -10.161300  -6.324870   7.592760 -73.547200  14.180100  -1.944300   0.332340   2.039250 -17.336400   7.785530  -5.212900  -0.810242  38.027700  30.456200 -50.120200 -33.319400  -0.002045   0.000766 -11.659700  -0.005192   0.001360 -30.203000   0.581882  -0.999516 -24.715800  -0.002951  -0.006613 -17.301000   0.000345  -0.007338 -28.476900  -3.916980   7.178870 -39.541300   0.001112  -0.004873 -26.334500   0.002492  -0.001733 -26.938200  -3.722490   7.281070 -27.722900   0.003036   0.001940 -18.463400   0.004051  -0.003832 -25.985200  -4.608690   9.360920 -39.544200   0.004142  -0.001258 -26.336400  -0.001469   0.004247   6.022470  -3.401260  14.972400  63.187700  -8.063030  57.235000  -8.910820 -17.588500  75.585700  45.531100 -46.345900  43.861100 -47.372300  55.159700  92.918700  49.037900   0.003573  -0.004014  24.042200   0.004877  -0.006472   6.981450   3.638180  27.393600   6.437720   0.008637  -0.003153   4.506410   0.001243  -0.006686   4.287000   0.821852  10.831800   4.364930   0.007678   0.003471   2.907030   0.006510  -0.006629   3.108110  -0.400423  -7.330540   3.133790  -0.003728   0.004722   2.087090  -0.002204   0.001339  67.579400  -9.257930  -3.797190 101.830000  -0.001146  -0.001360  67.819100  -0.001344  -0.010057   1.695050  11.569500  -0.692880  -0.099544   1.812360   7.715360  -2.560440  -3.258470  -1.690870  -0.000000   0.000000  -0.000000  -1.072990  14.032900  -6.958730   1.179030   1.553560 -15.147100  -0.080797  -4.655170  -2.687890   0.000000   0.000000   0.000000
